<svg width="512" height="512" viewBox="0 0 100 100" xmlns="http://www.w3.org/2000/svg">
  <defs>
    <linearGradient id="bg" x1="0" y1="0" x2="0" y2="1">
      <stop offset="0" stop-color="#FFB86B"/>
      <stop offset="1" stop-color="#E8813A"/>
    </linearGradient>
    <radialGradient id="dough" cx="42%" cy="32%" r="78%">
      <stop offset="0" stop-color="#FFFDF8"/>
      <stop offset="0.66" stop-color="#FFF1DE"/>
      <stop offset="1" stop-color="#F8DEBE"/>
    </radialGradient>
  </defs>

  <!-- squircle ground -->
  <rect x="4" y="4" width="92" height="92" rx="24" fill="url(#bg)"/>

  <!-- minimal steam: three tiny whispers -->
  <g stroke="#FFE6C4" stroke-width="2" stroke-linecap="round" fill="none" opacity="0.6">
    <path d="M41 27 C39.2 24.3 42.8 23 41 20.3"/>
    <path d="M50 26 C48.2 23.3 51.8 22 50 19.3"/>
    <path d="M59 27 C57.2 24.3 60.8 23 59 20.3"/>
  </g>

  <!-- bun: smaller, centered, roomy padding -->
  <path d="M50 34 C70 34 79 48 79 62 C79 78 65 84 50 84 C35 84 21 78 21 62 C21 48 30 34 50 34Z"
        fill="url(#dough)" stroke="#EBD3B2" stroke-width="1.4"/>
  <!-- soft pleat cap -->
  <ellipse cx="50" cy="36.5" rx="6.5" ry="3.9" fill="#FCEED8" stroke="#EBD3B2" stroke-width="1"/>

  <!-- content ^^ eyes -->
  <path d="M36 60 Q41 52.5 46 60" stroke="#3A302A" stroke-width="3" fill="none" stroke-linecap="round"/>
  <path d="M54 60 Q59 52.5 64 60" stroke="#3A302A" stroke-width="3" fill="none" stroke-linecap="round"/>
  <!-- gentle smile, given room below the eyes -->
  <path d="M44 72 Q50 77 56 72" stroke="#3A302A" stroke-width="2.6" fill="none" stroke-linecap="round"/>
</svg>
